<mxfile host="app.diagrams.net" agent="Mozilla/5.0 (X11; Ubuntu; Linux x86_64; rv:130.0) Gecko/20100101 Firefox/130.0" version="24.7.14">
  <diagram name="Page-1" id="dEVikW7X3dbSNaLJPv5L">
    <mxGraphModel dx="2214" dy="795" grid="1" gridSize="10" guides="1" tooltips="1" connect="1" arrows="1" fold="1" page="1" pageScale="1" pageWidth="850" pageHeight="1100" math="0" shadow="0">
      <root>
        <mxCell id="0" />
        <mxCell id="1" parent="0" />
        <mxCell id="ePRqvLeVP3npbpZ9FYui-49" value="" style="rounded=1;whiteSpace=wrap;html=1;" vertex="1" parent="1">
          <mxGeometry x="-455" y="40" width="230" height="437.5" as="geometry" />
        </mxCell>
        <mxCell id="ePRqvLeVP3npbpZ9FYui-38" value="" style="rounded=1;whiteSpace=wrap;html=1;" vertex="1" parent="1">
          <mxGeometry x="-100" y="40" width="730" height="1090" as="geometry" />
        </mxCell>
        <mxCell id="ePRqvLeVP3npbpZ9FYui-10" style="edgeStyle=orthogonalEdgeStyle;rounded=0;orthogonalLoop=1;jettySize=auto;html=1;" edge="1" parent="1" source="ePRqvLeVP3npbpZ9FYui-1" target="ePRqvLeVP3npbpZ9FYui-3">
          <mxGeometry relative="1" as="geometry" />
        </mxCell>
        <mxCell id="ePRqvLeVP3npbpZ9FYui-1" value="DETECT_FACE" style="ellipse;whiteSpace=wrap;html=1;" vertex="1" parent="1">
          <mxGeometry x="350" y="120" width="120" height="80" as="geometry" />
        </mxCell>
        <mxCell id="ePRqvLeVP3npbpZ9FYui-8" style="edgeStyle=orthogonalEdgeStyle;rounded=0;orthogonalLoop=1;jettySize=auto;html=1;entryX=1;entryY=0.5;entryDx=0;entryDy=0;" edge="1" parent="1" source="ePRqvLeVP3npbpZ9FYui-3" target="ePRqvLeVP3npbpZ9FYui-7">
          <mxGeometry relative="1" as="geometry" />
        </mxCell>
        <mxCell id="ePRqvLeVP3npbpZ9FYui-12" style="edgeStyle=orthogonalEdgeStyle;rounded=0;orthogonalLoop=1;jettySize=auto;html=1;" edge="1" parent="1" source="ePRqvLeVP3npbpZ9FYui-3" target="ePRqvLeVP3npbpZ9FYui-11">
          <mxGeometry relative="1" as="geometry" />
        </mxCell>
        <mxCell id="ePRqvLeVP3npbpZ9FYui-3" value="Was a face detected?" style="strokeWidth=2;html=1;shape=mxgraph.flowchart.decision;whiteSpace=wrap;" vertex="1" parent="1">
          <mxGeometry x="360" y="260" width="100" height="100" as="geometry" />
        </mxCell>
        <mxCell id="ePRqvLeVP3npbpZ9FYui-4" value="END" style="strokeWidth=2;html=1;shape=mxgraph.flowchart.start_2;whiteSpace=wrap;" vertex="1" parent="1">
          <mxGeometry x="-80" y="270" width="80" height="80" as="geometry" />
        </mxCell>
        <mxCell id="ePRqvLeVP3npbpZ9FYui-9" style="edgeStyle=orthogonalEdgeStyle;rounded=0;orthogonalLoop=1;jettySize=auto;html=1;" edge="1" parent="1" source="ePRqvLeVP3npbpZ9FYui-7" target="ePRqvLeVP3npbpZ9FYui-4">
          <mxGeometry relative="1" as="geometry" />
        </mxCell>
        <mxCell id="ePRqvLeVP3npbpZ9FYui-7" value="Send status msg&lt;br&gt;(success / fail)&lt;br&gt;(failure reason if failed)" style="rounded=0;whiteSpace=wrap;html=1;" vertex="1" parent="1">
          <mxGeometry x="110" y="280" width="130" height="60" as="geometry" />
        </mxCell>
        <mxCell id="ePRqvLeVP3npbpZ9FYui-14" style="edgeStyle=orthogonalEdgeStyle;rounded=0;orthogonalLoop=1;jettySize=auto;html=1;" edge="1" parent="1" source="ePRqvLeVP3npbpZ9FYui-11" target="ePRqvLeVP3npbpZ9FYui-13">
          <mxGeometry relative="1" as="geometry" />
        </mxCell>
        <mxCell id="ePRqvLeVP3npbpZ9FYui-11" value="APPROACH_FACE" style="ellipse;whiteSpace=wrap;html=1;" vertex="1" parent="1">
          <mxGeometry x="350" y="410" width="120" height="80" as="geometry" />
        </mxCell>
        <mxCell id="ePRqvLeVP3npbpZ9FYui-17" style="edgeStyle=orthogonalEdgeStyle;rounded=0;orthogonalLoop=1;jettySize=auto;html=1;entryX=0.75;entryY=1;entryDx=0;entryDy=0;" edge="1" parent="1" source="ePRqvLeVP3npbpZ9FYui-13" target="ePRqvLeVP3npbpZ9FYui-7">
          <mxGeometry relative="1" as="geometry" />
        </mxCell>
        <mxCell id="ePRqvLeVP3npbpZ9FYui-18" style="edgeStyle=orthogonalEdgeStyle;rounded=0;orthogonalLoop=1;jettySize=auto;html=1;entryX=0.5;entryY=0;entryDx=0;entryDy=0;" edge="1" parent="1" source="ePRqvLeVP3npbpZ9FYui-13" target="ePRqvLeVP3npbpZ9FYui-16">
          <mxGeometry relative="1" as="geometry" />
        </mxCell>
        <mxCell id="ePRqvLeVP3npbpZ9FYui-13" value="Was approach successful?" style="strokeWidth=2;html=1;shape=mxgraph.flowchart.decision;whiteSpace=wrap;" vertex="1" parent="1">
          <mxGeometry x="360" y="550" width="100" height="100" as="geometry" />
        </mxCell>
        <mxCell id="ePRqvLeVP3npbpZ9FYui-16" value="DETECT_FEET" style="ellipse;whiteSpace=wrap;html=1;" vertex="1" parent="1">
          <mxGeometry x="350" y="710" width="120" height="80" as="geometry" />
        </mxCell>
        <mxCell id="ePRqvLeVP3npbpZ9FYui-22" style="edgeStyle=orthogonalEdgeStyle;rounded=0;orthogonalLoop=1;jettySize=auto;html=1;entryX=0.5;entryY=0;entryDx=0;entryDy=0;" edge="1" parent="1" source="ePRqvLeVP3npbpZ9FYui-19" target="ePRqvLeVP3npbpZ9FYui-21">
          <mxGeometry relative="1" as="geometry" />
        </mxCell>
        <mxCell id="ePRqvLeVP3npbpZ9FYui-24" style="edgeStyle=orthogonalEdgeStyle;rounded=0;orthogonalLoop=1;jettySize=auto;html=1;entryX=0.5;entryY=0;entryDx=0;entryDy=0;" edge="1" parent="1" source="ePRqvLeVP3npbpZ9FYui-19" target="ePRqvLeVP3npbpZ9FYui-23">
          <mxGeometry relative="1" as="geometry" />
        </mxCell>
        <mxCell id="ePRqvLeVP3npbpZ9FYui-19" value="&lt;div&gt;Were feet&lt;/div&gt;&lt;div&gt;detected?&lt;br&gt;&lt;/div&gt;" style="strokeWidth=2;html=1;shape=mxgraph.flowchart.decision;whiteSpace=wrap;" vertex="1" parent="1">
          <mxGeometry x="360" y="840" width="100" height="100" as="geometry" />
        </mxCell>
        <mxCell id="ePRqvLeVP3npbpZ9FYui-20" style="edgeStyle=orthogonalEdgeStyle;rounded=0;orthogonalLoop=1;jettySize=auto;html=1;entryX=0.5;entryY=0;entryDx=0;entryDy=0;entryPerimeter=0;" edge="1" parent="1" source="ePRqvLeVP3npbpZ9FYui-16" target="ePRqvLeVP3npbpZ9FYui-19">
          <mxGeometry relative="1" as="geometry" />
        </mxCell>
        <mxCell id="ePRqvLeVP3npbpZ9FYui-29" style="edgeStyle=orthogonalEdgeStyle;rounded=0;orthogonalLoop=1;jettySize=auto;html=1;entryX=0.5;entryY=1;entryDx=0;entryDy=0;" edge="1" parent="1" source="ePRqvLeVP3npbpZ9FYui-21" target="ePRqvLeVP3npbpZ9FYui-7">
          <mxGeometry relative="1" as="geometry">
            <Array as="points">
              <mxPoint x="180" y="1000" />
            </Array>
          </mxGeometry>
        </mxCell>
        <mxCell id="ePRqvLeVP3npbpZ9FYui-21" value="APPROACH_FEET_&lt;br&gt;LIDAR" style="ellipse;whiteSpace=wrap;html=1;" vertex="1" parent="1">
          <mxGeometry x="210" y="960" width="120" height="80" as="geometry" />
        </mxCell>
        <mxCell id="ePRqvLeVP3npbpZ9FYui-31" style="edgeStyle=orthogonalEdgeStyle;rounded=0;orthogonalLoop=1;jettySize=auto;html=1;entryX=0.25;entryY=1;entryDx=0;entryDy=0;" edge="1" parent="1" source="ePRqvLeVP3npbpZ9FYui-23" target="ePRqvLeVP3npbpZ9FYui-7">
          <mxGeometry relative="1" as="geometry">
            <Array as="points">
              <mxPoint x="540" y="1090" />
              <mxPoint x="150" y="1090" />
            </Array>
          </mxGeometry>
        </mxCell>
        <mxCell id="ePRqvLeVP3npbpZ9FYui-23" value="APPROACH_FEET_&lt;br&gt;CV" style="ellipse;whiteSpace=wrap;html=1;" vertex="1" parent="1">
          <mxGeometry x="480" y="960" width="120" height="80" as="geometry" />
        </mxCell>
        <mxCell id="ePRqvLeVP3npbpZ9FYui-32" value="&lt;div&gt;Yes&lt;/div&gt;" style="text;html=1;align=center;verticalAlign=middle;whiteSpace=wrap;rounded=0;" vertex="1" parent="1">
          <mxGeometry x="400" y="370" width="60" height="30" as="geometry" />
        </mxCell>
        <mxCell id="ePRqvLeVP3npbpZ9FYui-33" value="No" style="text;html=1;align=center;verticalAlign=middle;whiteSpace=wrap;rounded=0;" vertex="1" parent="1">
          <mxGeometry x="300" y="280" width="60" height="30" as="geometry" />
        </mxCell>
        <mxCell id="ePRqvLeVP3npbpZ9FYui-34" value="No" style="text;html=1;align=center;verticalAlign=middle;whiteSpace=wrap;rounded=0;" vertex="1" parent="1">
          <mxGeometry x="300" y="570" width="60" height="30" as="geometry" />
        </mxCell>
        <mxCell id="ePRqvLeVP3npbpZ9FYui-35" value="Yes" style="text;html=1;align=center;verticalAlign=middle;whiteSpace=wrap;rounded=0;" vertex="1" parent="1">
          <mxGeometry x="410" y="660" width="60" height="30" as="geometry" />
        </mxCell>
        <mxCell id="ePRqvLeVP3npbpZ9FYui-36" value="Yes" style="text;html=1;align=center;verticalAlign=middle;whiteSpace=wrap;rounded=0;" vertex="1" parent="1">
          <mxGeometry x="450" y="860" width="60" height="30" as="geometry" />
        </mxCell>
        <mxCell id="ePRqvLeVP3npbpZ9FYui-37" value="No" style="text;html=1;align=center;verticalAlign=middle;whiteSpace=wrap;rounded=0;" vertex="1" parent="1">
          <mxGeometry x="300" y="860" width="60" height="30" as="geometry" />
        </mxCell>
        <mxCell id="ePRqvLeVP3npbpZ9FYui-41" value="State" style="ellipse;whiteSpace=wrap;html=1;" vertex="1" parent="1">
          <mxGeometry x="-380" y="122.5" width="80" height="60" as="geometry" />
        </mxCell>
        <mxCell id="ePRqvLeVP3npbpZ9FYui-42" value="Decision" style="strokeWidth=2;html=1;shape=mxgraph.flowchart.decision;whiteSpace=wrap;" vertex="1" parent="1">
          <mxGeometry x="-375" y="277.5" width="70" height="70" as="geometry" />
        </mxCell>
        <mxCell id="ePRqvLeVP3npbpZ9FYui-43" value="Start / End" style="strokeWidth=2;html=1;shape=mxgraph.flowchart.start_2;whiteSpace=wrap;" vertex="1" parent="1">
          <mxGeometry x="-375" y="372.5" width="70" height="70" as="geometry" />
        </mxCell>
        <mxCell id="ePRqvLeVP3npbpZ9FYui-44" value="&lt;h1&gt;Legend&lt;br&gt;&lt;/h1&gt;" style="text;html=1;spacing=5;spacingTop=-20;whiteSpace=wrap;overflow=hidden;rounded=0;" vertex="1" parent="1">
          <mxGeometry x="-390" y="62.5" width="100" height="40" as="geometry" />
        </mxCell>
        <mxCell id="ePRqvLeVP3npbpZ9FYui-46" style="edgeStyle=orthogonalEdgeStyle;rounded=0;orthogonalLoop=1;jettySize=auto;html=1;exitX=0.5;exitY=1;exitDx=0;exitDy=0;" edge="1" parent="1">
          <mxGeometry relative="1" as="geometry">
            <mxPoint x="-340" y="532.5" as="sourcePoint" />
            <mxPoint x="-340" y="532.5" as="targetPoint" />
          </mxGeometry>
        </mxCell>
        <mxCell id="ePRqvLeVP3npbpZ9FYui-47" value="Functionalities" style="rounded=1;whiteSpace=wrap;html=1;" vertex="1" parent="1">
          <mxGeometry x="-400" y="212.5" width="120" height="40" as="geometry" />
        </mxCell>
        <mxCell id="ePRqvLeVP3npbpZ9FYui-48" style="edgeStyle=orthogonalEdgeStyle;rounded=0;orthogonalLoop=1;jettySize=auto;html=1;exitX=0.5;exitY=1;exitDx=0;exitDy=0;" edge="1" parent="1">
          <mxGeometry relative="1" as="geometry">
            <mxPoint x="-340" y="562.5" as="sourcePoint" />
            <mxPoint x="-340" y="562.5" as="targetPoint" />
          </mxGeometry>
        </mxCell>
      </root>
    </mxGraphModel>
  </diagram>
</mxfile>
